<svg viewBox="0 0 200 200" xmlns="http://www.w3.org/2000/svg">
  <!-- Background circle with gradient -->
  <defs>
    <linearGradient id="bgGradient" x1="0%" y1="0%" x2="100%" y2="100%">
      <stop offset="0%" style="stop-color:#667eea;stop-opacity:1" />
      <stop offset="100%" style="stop-color:#764ba2;stop-opacity:1" />
    </linearGradient>
    
    <linearGradient id="checkGradient" x1="0%" y1="0%" x2="100%" y2="100%">
      <stop offset="0%" style="stop-color:#4ade80;stop-opacity:1" />
      <stop offset="100%" style="stop-color:#22c55e;stop-opacity:1" />
    </linearGradient>
    
    <linearGradient id="dashGradient" x1="0%" y1="0%" x2="100%" y2="100%">
      <stop offset="0%" style="stop-color:#60a5fa;stop-opacity:1" />
      <stop offset="100%" style="stop-color:#3b82f6;stop-opacity:1" />
    </linearGradient>
  </defs>
  
  <!-- Main background circle -->
  <circle cx="100" cy="100" r="90" fill="url(#bgGradient)" opacity="0.9"/>
  
  <!-- Checklist items representation -->
  <g transform="translate(40, 50)">
    <!-- Completed task (with checkmark) -->
    <rect x="0" y="0" width="120" height="8" rx="4" fill="white" opacity="0.2"/>
    <circle cx="10" cy="4" r="6" fill="url(#checkGradient)"/>
    <path d="M6 4 L9 7 L14 1" stroke="white" stroke-width="2" fill="none" stroke-linecap="round" stroke-linejoin="round"/>
    
    <!-- Pending task -->
    <rect x="0" y="25" width="120" height="8" rx="4" fill="white" opacity="0.3"/>
    <circle cx="10" cy="29" r="6" fill="white" opacity="0.4"/>
    
    <!-- Another pending task -->
    <rect x="0" y="50" width="90" height="8" rx="4" fill="white" opacity="0.25"/>
    <circle cx="10" cy="54" r="6" fill="white" opacity="0.4"/>
  </g>
  
  <!-- Dashboard/Analytics element -->
  <g transform="translate(130, 110)">
    <!-- Mini chart bars representing dashboard -->
    <rect x="0" y="15" width="8" height="25" rx="2" fill="url(#dashGradient)" opacity="0.8"/>
    <rect x="12" y="8" width="8" height="32" rx="2" fill="url(#dashGradient)" opacity="0.9"/>
    <rect x="24" y="20" width="8" height="20" rx="2" fill="url(#dashGradient)" opacity="0.7"/>
    
    <!-- Small circle indicator -->
    <circle cx="20" cy="0" r="3" fill="#fbbf24"/>
  </g>
  
  <!-- Subtle geometric accent -->
  <circle cx="160" cy="60" r="2" fill="white" opacity="0.4"/>
  <circle cx="50" cy="150" r="2" fill="white" opacity="0.3"/>
  
  <!-- App name -->
  <text x="100" y="175" font-family="Arial, sans-serif" font-size="18" font-weight="bold" text-anchor="middle" fill="white" opacity="0.9">TODO</text>
</svg>